<svg xmlns="http://www.w3.org/2000/svg" xmlns:xlink="http://www.w3.org/1999/xlink" width="500" zoomAndPan="magnify" viewBox="0 0 375 374.999991" height="500" preserveAspectRatio="xMidYMid meet" version="1.0"><defs><g/><clipPath id="d93ce91313"><path d="M 12 8 L 351 8 L 351 347 L 12 347 Z M 12 8 " clip-rule="nonzero"/></clipPath><clipPath id="0b15e7e16b"><path d="M 188.675781 -61.898438 L 371.394531 131.757812 L 125.367188 363.886719 L -57.351562 170.230469 Z M 188.675781 -61.898438 " clip-rule="nonzero"/></clipPath><clipPath id="0c7737f37f"><path d="M 188.675781 -61.898438 L 420.804688 184.125 L 174.78125 416.257812 L -57.351562 170.230469 Z M 188.675781 -61.898438 " clip-rule="nonzero"/></clipPath></defs><g clip-path="url(#d93ce91313)"><g clip-path="url(#0b15e7e16b)"><g clip-path="url(#0c7737f37f)"><path fill="#9c27b0" d="M 304.824219 61.203125 C 240.738281 -6.71875 133.492188 -9.832031 65.574219 54.25 C -2.347656 118.335938 -5.464844 225.582031 58.621094 293.503906 C 122.703125 361.421875 229.953125 364.539062 297.871094 300.453125 C 365.792969 236.371094 368.910156 129.125 304.824219 61.203125 Z M 299.472656 66.253906 C 360.894531 131.351562 357.921875 233.679688 292.820312 295.101562 C 227.722656 356.527344 125.394531 353.550781 63.972656 288.453125 C 2.550781 223.351562 5.523438 121.027344 70.621094 59.601562 C 135.722656 -1.820312 238.050781 1.152344 299.472656 66.253906 Z M 299.472656 66.253906 " fill-opacity="1" fill-rule="nonzero"/></g></g></g><g fill="#9c27b0" fill-opacity="1"><g transform="translate(155.850236, 351.774744)"><g><path d="M 14.5 0.015625 L 13.859375 2.984375 L 1.796875 0.390625 L 5.546875 -16.953125 L 17.390625 -14.40625 L 16.75 -11.453125 L 8.28125 -13.28125 L 7.375 -9.109375 L 14.703125 -7.53125 L 14.109375 -4.796875 L 6.78125 -6.375 L 5.8125 -1.859375 Z M 14.5 0.015625 "/></g></g></g><g fill="#9c27b0" fill-opacity="1"><g transform="translate(181.903865, 356.502923)"><g><path d="M 1.84375 0.078125 L 2.53125 -17.65625 L 8.984375 -17.421875 C 10.421875 -17.359375 11.675781 -17.070312 12.75 -16.5625 C 13.820312 -16.050781 14.707031 -15.382812 15.40625 -14.5625 C 16.113281 -13.738281 16.628906 -12.78125 16.953125 -11.6875 C 17.273438 -10.59375 17.414062 -9.445312 17.375 -8.25 C 17.320312 -6.894531 17.070312 -5.675781 16.625 -4.59375 C 16.175781 -3.519531 15.550781 -2.613281 14.75 -1.875 C 13.957031 -1.132812 13.015625 -0.570312 11.921875 -0.1875 C 10.835938 0.195312 9.628906 0.363281 8.296875 0.3125 Z M 13.90625 -8.390625 C 13.9375 -9.234375 13.847656 -10.015625 13.640625 -10.734375 C 13.429688 -11.453125 13.113281 -12.078125 12.6875 -12.609375 C 12.257812 -13.148438 11.722656 -13.570312 11.078125 -13.875 C 10.429688 -14.1875 9.691406 -14.359375 8.859375 -14.390625 L 5.859375 -14.5 L 5.40625 -2.828125 L 8.40625 -2.71875 C 9.257812 -2.675781 10.019531 -2.789062 10.6875 -3.0625 C 11.351562 -3.34375 11.914062 -3.734375 12.375 -4.234375 C 12.84375 -4.742188 13.207031 -5.351562 13.46875 -6.0625 C 13.726562 -6.78125 13.875 -7.554688 13.90625 -8.390625 Z M 13.90625 -8.390625 "/></g></g></g><g fill="#9c27b0" fill-opacity="1"><g transform="translate(211.608426, 356.840822)"><g><path d="M 4.796875 -18.8125 L 7.9375 -19.359375 L 10.921875 -13.921875 L 11.890625 -20.046875 L 15.015625 -20.59375 L 13.4375 -12.125 L 16.625 -6.90625 L 19.203125 -21.375 L 22.90625 -22.015625 L 18.84375 -3.28125 L 15.984375 -2.796875 L 11.671875 -9.609375 L 9.921875 -1.734375 L 7.0625 -1.234375 L -3.046875 -17.484375 L 0.59375 -18.125 L 7.9375 -5.390625 L 9.140625 -11.375 Z M 4.796875 -18.8125 "/></g></g></g><g fill="#9c27b0" fill-opacity="1"><g transform="translate(248.737581, 348.623203)"><g><path d="M -0.1875 -19.046875 L 2.640625 -20.1875 L 15.515625 -6.203125 L 12.21875 -4.890625 L 9.03125 -8.375 L 3.28125 -6.078125 L 3.40625 -1.359375 L 0.109375 -0.046875 Z M 7.546875 -10.390625 L 2.671875 -15.96875 L 2.90625 -8.546875 Z M 7.546875 -10.390625 "/></g></g></g><g fill="#9c27b0" fill-opacity="1"><g transform="translate(274.583008, 337.193094)"><g><path d="M 1.5625 -0.96875 L -7.8125 -16.046875 L -1.140625 -20.203125 C -0.441406 -20.628906 0.289062 -20.878906 1.0625 -20.953125 C 1.832031 -21.023438 2.578125 -20.957031 3.296875 -20.75 C 4.015625 -20.539062 4.675781 -20.207031 5.28125 -19.75 C 5.894531 -19.289062 6.394531 -18.757812 6.78125 -18.15625 C 7.382812 -17.175781 7.691406 -16.132812 7.703125 -15.03125 C 7.710938 -13.9375 7.414062 -12.957031 6.8125 -12.09375 L 13.765625 -8.546875 L 10.46875 -6.515625 L 4.25 -9.65625 L 1.359375 -7.859375 L 4.5 -2.796875 Z M -0.234375 -10.40625 L 3.4375 -12.6875 C 3.707031 -12.851562 3.921875 -13.070312 4.078125 -13.34375 C 4.234375 -13.625 4.328125 -13.929688 4.359375 -14.265625 C 4.390625 -14.597656 4.359375 -14.9375 4.265625 -15.28125 C 4.179688 -15.632812 4.035156 -15.984375 3.828125 -16.328125 C 3.609375 -16.679688 3.347656 -16.96875 3.046875 -17.1875 C 2.742188 -17.414062 2.429688 -17.582031 2.109375 -17.6875 C 1.785156 -17.789062 1.460938 -17.820312 1.140625 -17.78125 C 0.816406 -17.75 0.53125 -17.65625 0.28125 -17.5 L -3.265625 -15.296875 Z M -0.234375 -10.40625 "/></g></g></g><g fill="#9c27b0" fill-opacity="1"><g transform="translate(297.936205, 321.52857)"><g><path d="M 1.359375 -1.234375 L -10.546875 -14.390625 L -5.75 -18.71875 C -4.675781 -19.695312 -3.578125 -20.378906 -2.453125 -20.765625 C -1.328125 -21.148438 -0.226562 -21.289062 0.84375 -21.1875 C 1.925781 -21.09375 2.960938 -20.769531 3.953125 -20.21875 C 4.953125 -19.664062 5.859375 -18.941406 6.671875 -18.046875 C 7.578125 -17.035156 8.242188 -15.988281 8.671875 -14.90625 C 9.109375 -13.832031 9.300781 -12.75 9.25 -11.65625 C 9.195312 -10.570312 8.914062 -9.507812 8.40625 -8.46875 C 7.894531 -7.425781 7.144531 -6.457031 6.15625 -5.5625 Z M 4.09375 -15.71875 C 3.519531 -16.34375 2.90625 -16.84375 2.25 -17.21875 C 1.601562 -17.59375 0.9375 -17.816406 0.25 -17.890625 C -0.425781 -17.972656 -1.101562 -17.894531 -1.78125 -17.65625 C -2.457031 -17.425781 -3.101562 -17.03125 -3.71875 -16.46875 L -5.953125 -14.453125 L 1.890625 -5.796875 L 4.125 -7.8125 C 4.757812 -8.382812 5.21875 -9 5.5 -9.65625 C 5.789062 -10.320312 5.921875 -11 5.890625 -11.6875 C 5.867188 -12.375 5.703125 -13.0625 5.390625 -13.75 C 5.078125 -14.4375 4.644531 -15.09375 4.09375 -15.71875 Z M 4.09375 -15.71875 "/></g></g></g><g fill="#9c27b0" fill-opacity="1"><g transform="translate(318.645966, 301.121684)"><g/></g></g><g fill="#9c27b0" fill-opacity="1"><g transform="translate(329.361003, 287.606488)"><g><path d="M 6.21875 -12.515625 C 6.226562 -11.753906 6.132812 -10.992188 5.9375 -10.234375 C 5.738281 -9.472656 5.421875 -8.726562 4.984375 -8 C 4.304688 -6.882812 3.472656 -6.003906 2.484375 -5.359375 C 1.492188 -4.722656 0.445312 -4.296875 -0.65625 -4.078125 C -1.757812 -3.867188 -2.878906 -3.863281 -4.015625 -4.0625 C -5.160156 -4.269531 -6.21875 -4.671875 -7.1875 -5.265625 C -8.207031 -5.878906 -9.066406 -6.648438 -9.765625 -7.578125 C -10.472656 -8.515625 -10.984375 -9.53125 -11.296875 -10.625 C -11.609375 -11.71875 -11.695312 -12.847656 -11.5625 -14.015625 C -11.425781 -15.179688 -11.035156 -16.296875 -10.390625 -17.359375 C -9.722656 -18.460938 -8.890625 -19.328125 -7.890625 -19.953125 C -6.898438 -20.585938 -5.847656 -21.007812 -4.734375 -21.21875 C -3.617188 -21.425781 -2.488281 -21.425781 -1.34375 -21.21875 C -0.195312 -21.007812 0.847656 -20.617188 1.796875 -20.046875 C 2.785156 -19.453125 3.617188 -18.707031 4.296875 -17.8125 C 4.984375 -16.925781 5.492188 -15.960938 5.828125 -14.921875 L 9.40625 -15.578125 L 7.734375 -12.796875 Z M 2.390625 -9.609375 C 2.617188 -9.992188 2.785156 -10.378906 2.890625 -10.765625 C 3.003906 -11.160156 3.066406 -11.546875 3.078125 -11.921875 L -0.921875 -11.1875 L 0.75 -13.96875 L 2.5625 -14.3125 C 2.28125 -14.875 1.914062 -15.394531 1.46875 -15.875 C 1.019531 -16.363281 0.519531 -16.773438 -0.03125 -17.109375 C -0.695312 -17.503906 -1.394531 -17.785156 -2.125 -17.953125 C -2.863281 -18.117188 -3.582031 -18.15625 -4.28125 -18.0625 C -4.988281 -17.96875 -5.644531 -17.734375 -6.25 -17.359375 C -6.863281 -16.984375 -7.378906 -16.453125 -7.796875 -15.765625 C -8.234375 -15.046875 -8.472656 -14.316406 -8.515625 -13.578125 C -8.554688 -12.835938 -8.445312 -12.132812 -8.1875 -11.46875 C -7.925781 -10.8125 -7.546875 -10.207031 -7.046875 -9.65625 C -6.554688 -9.101562 -6 -8.640625 -5.375 -8.265625 C -4.71875 -7.859375 -4.023438 -7.566406 -3.296875 -7.390625 C -2.578125 -7.222656 -1.863281 -7.1875 -1.15625 -7.28125 C -0.457031 -7.375 0.195312 -7.609375 0.8125 -7.984375 C 1.4375 -8.359375 1.960938 -8.898438 2.390625 -9.609375 Z M 2.390625 -9.609375 "/></g></g></g><g fill="#9c27b0" fill-opacity="1"><g transform="translate(344.150304, 260.984193)"><g><path d="M 0.5 -9.78125 C 0.789062 -10.550781 0.875 -11.253906 0.75 -11.890625 C 0.632812 -12.523438 0.382812 -13.097656 0 -13.609375 C -0.394531 -14.117188 -0.890625 -14.554688 -1.484375 -14.921875 C -2.078125 -15.296875 -2.722656 -15.613281 -3.421875 -15.875 L -11.90625 -19.015625 L -10.71875 -22.21875 L -2.234375 -19.078125 C -1.085938 -18.648438 -0.0664062 -18.113281 0.828125 -17.46875 C 1.734375 -16.832031 2.453125 -16.082031 2.984375 -15.21875 C 3.515625 -14.351562 3.828125 -13.378906 3.921875 -12.296875 C 4.023438 -11.210938 3.84375 -10.03125 3.375 -8.75 C 2.882812 -7.414062 2.234375 -6.367188 1.421875 -5.609375 C 0.617188 -4.859375 -0.265625 -4.332031 -1.234375 -4.03125 C -2.210938 -3.726562 -3.25 -3.632812 -4.34375 -3.75 C -5.4375 -3.863281 -6.53125 -4.117188 -7.625 -4.515625 L -16.109375 -7.65625 L -14.90625 -10.890625 L -6.421875 -7.75 C -5.710938 -7.488281 -5.007812 -7.300781 -4.3125 -7.1875 C -3.613281 -7.082031 -2.957031 -7.097656 -2.34375 -7.234375 C -1.726562 -7.378906 -1.164062 -7.65625 -0.65625 -8.0625 C -0.15625 -8.46875 0.226562 -9.039062 0.5 -9.78125 Z M 0.5 -9.78125 "/></g></g></g><g fill="#9c27b0" fill-opacity="1"><g transform="translate(353.319031, 232.441696)"><g><path d="M 0.375 -1.8125 L -17.015625 -5.390625 L -16.328125 -8.765625 L 1.0625 -5.1875 Z M 0.375 -1.8125 "/></g></g></g><g fill="#9c27b0" fill-opacity="1"><g transform="translate(356.637445, 214.309284)"><g><path d="M -11.09375 -5.875 L 0.265625 -5.296875 L 0.09375 -1.84375 L -17.640625 -2.75 L -17.5 -5.4375 L -5.375 -14.078125 L -17 -14.671875 L -16.828125 -18.109375 L 0.875 -17.203125 L 0.734375 -14.40625 Z M -11.09375 -5.875 "/></g></g></g><g fill="#9c27b0" fill-opacity="1"><g transform="translate(357.085168, 183.642659)"><g><path d="M -12 -3.65625 L -0.734375 -5.25 L -0.265625 -1.828125 L -17.84375 0.65625 L -18.21875 -2 L -7.953125 -12.78125 L -19.46875 -11.15625 L -19.953125 -14.5625 L -2.40625 -17.046875 L -2.015625 -14.28125 Z M -12 -3.65625 "/></g></g></g><g fill="#9c27b0" fill-opacity="1"><g transform="translate(80.740124, 232.993589)"><g><path d="M 80.1875 -23.34375 C 80.550781 -24.664062 81.285156 -25.640625 82.390625 -26.265625 C 83.503906 -26.890625 84.6875 -27.203125 85.9375 -27.203125 C 86.894531 -27.203125 87.867188 -26.960938 88.859375 -26.484375 C 89.859375 -26.003906 90.210938 -25.210938 89.921875 -24.109375 C 88.742188 -19.609375 86.734375 -15.695312 83.890625 -12.375 C 81.054688 -9.0625 77.679688 -6.335938 73.765625 -4.203125 C 69.859375 -2.066406 65.726562 -0.460938 61.375 0.609375 C 57.03125 1.679688 52.679688 2.21875 48.328125 2.21875 C 40.953125 2.21875 34.722656 0.613281 29.640625 -2.59375 C 24.554688 -5.800781 20.613281 -10.207031 17.8125 -15.8125 C 15.007812 -21.414062 13.273438 -27.757812 12.609375 -34.84375 C 12.390625 -37.570312 12.257812 -41.054688 12.21875 -45.296875 C 12.1875 -49.535156 12.257812 -54.175781 12.4375 -59.21875 C 12.625 -64.269531 12.882812 -69.488281 13.21875 -74.875 C 13.550781 -80.257812 13.921875 -85.492188 14.328125 -90.578125 C 14.734375 -95.671875 15.15625 -100.316406 15.59375 -104.515625 C 16.039062 -108.722656 16.445312 -112.15625 16.8125 -114.8125 C 16.957031 -116.0625 17.601562 -116.976562 18.75 -117.5625 C 19.894531 -118.15625 21.019531 -118.5625 22.125 -118.78125 C 27.0625 -119.59375 32 -120.144531 36.9375 -120.4375 C 41.882812 -120.738281 46.863281 -120.890625 51.875 -120.890625 C 57.40625 -120.890625 62.9375 -120.773438 68.46875 -120.546875 C 74 -120.328125 79.488281 -119.78125 84.9375 -118.90625 C 85.96875 -118.75 86.832031 -118.300781 87.53125 -117.5625 C 88.238281 -116.832031 88.332031 -115.914062 87.8125 -114.8125 C 87.226562 -113.550781 86.363281 -112.753906 85.21875 -112.421875 C 84.070312 -112.097656 82.875 -111.9375 81.625 -111.9375 C 76.757812 -112.664062 71.816406 -113.210938 66.796875 -113.578125 C 61.785156 -113.953125 56.773438 -114.140625 51.765625 -114.140625 C 47.484375 -114.140625 43.164062 -113.992188 38.8125 -113.703125 C 34.46875 -113.410156 30.191406 -112.96875 25.984375 -112.375 C 25.023438 -105 24.304688 -97.585938 23.828125 -90.140625 C 23.347656 -82.691406 22.816406 -75.023438 22.234375 -67.140625 C 25.691406 -65.953125 29.335938 -65.0625 33.171875 -64.46875 C 37.015625 -63.882812 40.925781 -63.59375 44.90625 -63.59375 C 54.125 -63.59375 63.226562 -64.957031 72.21875 -67.6875 C 72.957031 -67.832031 73.695312 -67.90625 74.4375 -67.90625 C 75.25 -67.90625 75.984375 -67.796875 76.640625 -67.578125 C 77.304688 -67.359375 77.710938 -66.878906 77.859375 -66.140625 C 78.085938 -65.179688 77.664062 -64.332031 76.59375 -63.59375 C 75.519531 -62.851562 74.578125 -62.410156 73.765625 -62.265625 C 68.828125 -60.867188 63.6875 -59.742188 58.34375 -58.890625 C 53 -58.046875 47.597656 -57.625 42.140625 -57.625 C 38.742188 -57.625 35.347656 -57.804688 31.953125 -58.171875 C 28.566406 -58.546875 25.253906 -59.101562 22.015625 -59.84375 C 21.859375 -56.082031 21.78125 -52.335938 21.78125 -48.609375 C 21.78125 -44.890625 21.929688 -41.1875 22.234375 -37.5 C 22.597656 -33.8125 23.351562 -30.085938 24.5 -26.328125 C 25.644531 -22.566406 27.265625 -19.097656 29.359375 -15.921875 C 31.460938 -12.753906 34.117188 -10.175781 37.328125 -8.1875 C 40.535156 -6.195312 44.390625 -5.128906 48.890625 -4.984375 C 51.984375 -4.984375 55.171875 -5.296875 58.453125 -5.921875 C 61.734375 -6.546875 64.847656 -7.554688 67.796875 -8.953125 C 70.742188 -10.359375 73.304688 -12.238281 75.484375 -14.59375 C 77.660156 -16.957031 79.226562 -19.875 80.1875 -23.34375 Z M 80.1875 -23.34375 "/></g></g></g><g fill="#9c27b0" fill-opacity="1"><g transform="translate(164.594037, 232.993589)"><g><path d="M 127.640625 2.65625 C 128.078125 1.84375 128.882812 1.195312 130.0625 0.71875 C 131.25 0.238281 132.429688 0 133.609375 0 C 134.492188 0 135.300781 0.164062 136.03125 0.5 C 136.769531 0.832031 137.140625 1.40625 137.140625 2.21875 C 137.140625 2.507812 136.992188 2.910156 136.703125 3.421875 C 134.785156 7.628906 132.054688 11.078125 128.515625 13.765625 C 124.984375 16.460938 121.019531 18.453125 116.625 19.734375 C 112.238281 21.023438 107.757812 21.671875 103.1875 21.671875 C 95.15625 21.671875 87.835938 19.753906 81.234375 15.921875 C 74.640625 12.085938 69.164062 7.148438 64.8125 1.109375 C 63.925781 1.179688 63.019531 1.234375 62.09375 1.265625 C 61.175781 1.304688 60.203125 1.328125 59.171875 1.328125 C 58.578125 1.328125 57.929688 1.328125 57.234375 1.328125 C 56.535156 1.328125 55.816406 1.328125 55.078125 1.328125 C 48.515625 1.328125 42.765625 0.09375 37.828125 -2.375 C 32.890625 -4.84375 28.703125 -8.175781 25.265625 -12.375 C 21.835938 -16.582031 19.070312 -21.300781 16.96875 -26.53125 C 14.875 -31.769531 13.347656 -37.207031 12.390625 -42.84375 C 11.429688 -48.488281 10.953125 -53.929688 10.953125 -59.171875 C 10.953125 -67.140625 12.019531 -74.804688 14.15625 -82.171875 C 16.289062 -89.546875 19.476562 -96.128906 23.71875 -101.921875 C 27.957031 -107.710938 33.226562 -112.300781 39.53125 -115.6875 C 45.84375 -119.082031 53.128906 -120.78125 61.390625 -120.78125 C 68.171875 -120.707031 74.085938 -119.414062 79.140625 -116.90625 C 84.191406 -114.394531 88.46875 -111 91.96875 -106.71875 C 95.46875 -102.445312 98.285156 -97.65625 100.421875 -92.34375 C 102.566406 -87.039062 104.117188 -81.53125 105.078125 -75.8125 C 106.035156 -70.101562 106.515625 -64.554688 106.515625 -59.171875 C 106.515625 -53.421875 105.941406 -47.648438 104.796875 -41.859375 C 103.648438 -36.078125 101.84375 -30.546875 99.375 -25.265625 C 96.90625 -19.992188 93.679688 -15.253906 89.703125 -11.046875 C 85.722656 -6.847656 80.890625 -3.535156 75.203125 -1.109375 C 78.890625 3.753906 83.351562 7.695312 88.59375 10.71875 C 93.832031 13.75 99.582031 15.265625 105.84375 15.265625 C 110.34375 15.265625 114.582031 14.285156 118.5625 12.328125 C 122.550781 10.378906 125.578125 7.15625 127.640625 2.65625 Z M 71.34375 -7.078125 C 73.550781 -8.035156 75.851562 -9.398438 78.25 -11.171875 C 80.644531 -12.941406 82.894531 -15.023438 85 -17.421875 C 87.101562 -19.816406 88.796875 -22.34375 90.078125 -25 C 91.367188 -27.65625 92.015625 -30.347656 92.015625 -33.078125 C 92.015625 -35.578125 91.222656 -37.988281 89.640625 -40.3125 C 88.054688 -42.632812 86.101562 -44.550781 83.78125 -46.0625 C 81.457031 -47.570312 79.15625 -48.328125 76.875 -48.328125 C 74 -48.328125 71.691406 -47.5 69.953125 -45.84375 C 68.222656 -44.1875 66.953125 -42.066406 66.140625 -39.484375 C 65.328125 -36.898438 64.921875 -34.242188 64.921875 -31.515625 C 64.921875 -27.535156 65.472656 -23.332031 66.578125 -18.90625 C 67.691406 -14.488281 69.28125 -10.546875 71.34375 -7.078125 Z M 56.625 -4.421875 L 61.71875 -4.421875 C 60.613281 -6.410156 59.5625 -8.785156 58.5625 -11.546875 C 57.570312 -14.316406 56.742188 -17.25 56.078125 -20.34375 C 55.410156 -23.445312 55.078125 -26.472656 55.078125 -29.421875 C 55.078125 -34.210938 56 -38.523438 57.84375 -42.359375 C 59.6875 -46.191406 62.300781 -49.210938 65.6875 -51.421875 C 69.082031 -53.640625 73.140625 -54.75 77.859375 -54.75 C 79.410156 -54.75 81.160156 -54.488281 83.109375 -53.96875 C 85.066406 -53.457031 86.945312 -52.609375 88.75 -51.421875 C 90.5625 -50.242188 92.078125 -48.660156 93.296875 -46.671875 C 94.515625 -44.679688 95.195312 -42.25 95.34375 -39.375 C 95.488281 -40.257812 95.613281 -41.550781 95.71875 -43.25 C 95.832031 -44.945312 95.960938 -46.804688 96.109375 -48.828125 C 96.253906 -50.859375 96.363281 -52.71875 96.4375 -54.40625 C 96.519531 -56.101562 96.5625 -57.394531 96.5625 -58.28125 C 96.5625 -63.519531 96.132812 -68.789062 95.28125 -74.09375 C 94.4375 -79.40625 93.09375 -84.4375 91.25 -89.1875 C 89.40625 -93.945312 86.929688 -98.207031 83.828125 -101.96875 C 80.734375 -105.726562 76.9375 -108.675781 72.4375 -110.8125 C 67.945312 -112.957031 62.640625 -114.03125 56.515625 -114.03125 C 54.453125 -114.03125 52.460938 -113.878906 50.546875 -113.578125 C 48.628906 -113.285156 46.929688 -112.847656 45.453125 -112.265625 C 40.585938 -110.128906 36.550781 -107.101562 33.34375 -103.1875 C 30.132812 -99.28125 27.609375 -94.875 25.765625 -89.96875 C 23.921875 -85.070312 22.613281 -80.039062 21.84375 -74.875 C 21.070312 -69.71875 20.6875 -64.816406 20.6875 -60.171875 C 20.6875 -55.671875 21.085938 -50.929688 21.890625 -45.953125 C 22.703125 -40.972656 23.992188 -36.066406 25.765625 -31.234375 C 27.535156 -26.410156 29.835938 -22.023438 32.671875 -18.078125 C 35.515625 -14.140625 38.910156 -10.929688 42.859375 -8.453125 C 46.804688 -5.984375 51.394531 -4.640625 56.625 -4.421875 Z M 56.625 -4.421875 "/></g></g></g></svg>