<svg xmlns="http://www.w3.org/2000/svg" xmlns:xlink="http://www.w3.org/1999/xlink" width="500" zoomAndPan="magnify" viewBox="0 0 375 374.999991" height="500" preserveAspectRatio="xMidYMid meet" version="1.0"><defs><g/><clipPath id="9da8f3ab7c"><path d="M 45 49 L 307 49 L 307 311 L 45 311 Z M 45 49 " clip-rule="nonzero"/></clipPath><clipPath id="1138cbc3cf"><path d="M 181.371094 -4.941406 L 322.398438 144.527344 L 132.015625 324.160156 L -9.011719 174.6875 Z M 181.371094 -4.941406 " clip-rule="nonzero"/></clipPath><clipPath id="8a88706d2f"><path d="M 181.371094 -4.941406 L 361 185.441406 L 170.617188 365.074219 L -9.011719 174.6875 Z M 181.371094 -4.941406 " clip-rule="nonzero"/></clipPath></defs><g clip-path="url(#9da8f3ab7c)"><g clip-path="url(#1138cbc3cf)"><g clip-path="url(#8a88706d2f)"><path fill="#ff9800" d="M 271.179688 90.246094 C 221.628906 37.726562 138.703125 35.316406 86.183594 84.871094 C 33.664062 134.421875 31.253906 217.351562 80.808594 269.867188 C 130.359375 322.386719 213.289062 324.796875 265.804688 275.246094 C 318.324219 225.691406 320.734375 142.765625 271.179688 90.246094 Z M 267.042969 94.152344 C 314.539062 144.488281 312.238281 223.609375 261.902344 271.105469 C 211.5625 318.601562 132.441406 316.300781 84.945312 265.964844 C 37.449219 215.625 39.75 136.503906 90.085938 89.007812 C 140.425781 41.515625 219.546875 43.8125 267.042969 94.152344 Z M 267.042969 94.152344 " fill-opacity="1" fill-rule="nonzero"/></g></g></g><g fill="#ff9800" fill-opacity="1"><g transform="translate(155.987997, 314.928336)"><g><path d="M 11.203125 0.015625 L 10.703125 2.3125 L 1.40625 0.296875 L 4.296875 -13.109375 L 13.421875 -11.140625 L 12.9375 -8.875 L 6.40625 -10.28125 L 5.703125 -7.03125 L 11.359375 -5.8125 L 10.90625 -3.703125 L 5.25 -4.921875 L 4.5 -1.4375 Z M 11.203125 0.015625 "/></g></g></g><g fill="#ff9800" fill-opacity="1"><g transform="translate(176.133669, 318.584372)"><g><path d="M 1.4375 0.0625 L 1.96875 -13.640625 L 6.953125 -13.453125 C 8.066406 -13.410156 9.035156 -13.191406 9.859375 -12.796875 C 10.679688 -12.410156 11.363281 -11.894531 11.90625 -11.25 C 12.445312 -10.613281 12.84375 -9.878906 13.09375 -9.046875 C 13.351562 -8.210938 13.46875 -7.320312 13.4375 -6.375 C 13.394531 -5.332031 13.195312 -4.394531 12.84375 -3.5625 C 12.5 -2.726562 12.015625 -2.019531 11.390625 -1.4375 C 10.773438 -0.863281 10.050781 -0.425781 9.21875 -0.125 C 8.382812 0.164062 7.453125 0.289062 6.421875 0.25 Z M 10.75 -6.46875 C 10.769531 -7.125 10.703125 -7.734375 10.546875 -8.296875 C 10.390625 -8.867188 10.144531 -9.359375 9.8125 -9.765625 C 9.476562 -10.171875 9.0625 -10.492188 8.5625 -10.734375 C 8.070312 -10.972656 7.503906 -11.101562 6.859375 -11.125 L 4.53125 -11.21875 L 4.1875 -2.1875 L 6.515625 -2.09375 C 7.171875 -2.070312 7.753906 -2.164062 8.265625 -2.375 C 8.773438 -2.582031 9.207031 -2.882812 9.5625 -3.28125 C 9.925781 -3.675781 10.207031 -4.144531 10.40625 -4.6875 C 10.613281 -5.238281 10.726562 -5.832031 10.75 -6.46875 Z M 10.75 -6.46875 "/></g></g></g><g fill="#ff9800" fill-opacity="1"><g transform="translate(199.10237, 318.845642)"><g><path d="M 3.71875 -14.546875 L 6.140625 -14.96875 L 8.4375 -10.75 L 9.1875 -15.5 L 11.609375 -15.921875 L 10.390625 -9.359375 L 12.859375 -5.34375 L 14.84375 -16.515625 L 17.71875 -17.015625 L 14.5625 -2.546875 L 12.359375 -2.15625 L 9.03125 -7.421875 L 7.6875 -1.34375 L 5.46875 -0.953125 L -2.359375 -13.515625 L 0.453125 -14 L 6.140625 -4.15625 L 7.0625 -8.78125 Z M 3.71875 -14.546875 "/></g></g></g><g fill="#ff9800" fill-opacity="1"><g transform="translate(227.812055, 312.491432)"><g><path d="M -0.140625 -14.71875 L 2.046875 -15.59375 L 11.984375 -4.796875 L 9.4375 -3.78125 L 6.984375 -6.46875 L 2.53125 -4.6875 L 2.640625 -1.0625 L 0.09375 -0.03125 Z M 5.84375 -8.046875 L 2.078125 -12.34375 L 2.25 -6.609375 Z M 5.84375 -8.046875 "/></g></g></g><g fill="#ff9800" fill-opacity="1"><g transform="translate(247.796718, 303.653252)"><g><path d="M 1.21875 -0.765625 L -6.03125 -12.421875 L -0.875 -15.609375 C -0.34375 -15.953125 0.21875 -16.148438 0.8125 -16.203125 C 1.40625 -16.253906 1.976562 -16.203125 2.53125 -16.046875 C 3.09375 -15.890625 3.609375 -15.632812 4.078125 -15.28125 C 4.554688 -14.9375 4.945312 -14.523438 5.25 -14.046875 C 5.71875 -13.285156 5.953125 -12.476562 5.953125 -11.625 C 5.953125 -10.78125 5.71875 -10.015625 5.25 -9.328125 L 10.640625 -6.609375 L 8.09375 -5.03125 L 3.28125 -7.453125 L 1.0625 -6.0625 L 3.484375 -2.15625 Z M -0.171875 -8.046875 L 2.65625 -9.8125 C 2.875 -9.945312 3.039062 -10.117188 3.15625 -10.328125 C 3.269531 -10.546875 3.335938 -10.78125 3.359375 -11.03125 C 3.378906 -11.28125 3.359375 -11.539062 3.296875 -11.8125 C 3.234375 -12.09375 3.125 -12.363281 2.96875 -12.625 C 2.789062 -12.894531 2.585938 -13.117188 2.359375 -13.296875 C 2.128906 -13.472656 1.882812 -13.597656 1.625 -13.671875 C 1.375 -13.753906 1.125 -13.78125 0.875 -13.75 C 0.625 -13.726562 0.398438 -13.660156 0.203125 -13.546875 L -2.53125 -11.828125 Z M -0.171875 -8.046875 "/></g></g></g><g fill="#ff9800" fill-opacity="1"><g transform="translate(265.854335, 291.540839)"><g><path d="M 1.0625 -0.96875 L -8.140625 -11.140625 L -4.4375 -14.484375 C -3.613281 -15.234375 -2.769531 -15.753906 -1.90625 -16.046875 C -1.039062 -16.347656 -0.191406 -16.457031 0.640625 -16.375 C 1.484375 -16.300781 2.289062 -16.050781 3.0625 -15.625 C 3.832031 -15.207031 4.535156 -14.644531 5.171875 -13.9375 C 5.867188 -13.164062 6.382812 -12.359375 6.71875 -11.515625 C 7.050781 -10.679688 7.195312 -9.84375 7.15625 -9 C 7.113281 -8.164062 6.894531 -7.347656 6.5 -6.546875 C 6.101562 -5.742188 5.523438 -5 4.765625 -4.3125 Z M 3.171875 -12.140625 C 2.734375 -12.628906 2.257812 -13.015625 1.75 -13.296875 C 1.238281 -13.585938 0.71875 -13.765625 0.1875 -13.828125 C -0.332031 -13.890625 -0.851562 -13.832031 -1.375 -13.65625 C -1.894531 -13.488281 -2.394531 -13.191406 -2.875 -12.765625 L -4.609375 -11.203125 L 1.453125 -4.484375 L 3.1875 -6.046875 C 3.664062 -6.484375 4.015625 -6.957031 4.234375 -7.46875 C 4.460938 -7.976562 4.566406 -8.5 4.546875 -9.03125 C 4.535156 -9.5625 4.410156 -10.09375 4.171875 -10.625 C 3.929688 -11.164062 3.597656 -11.671875 3.171875 -12.140625 Z M 3.171875 -12.140625 "/></g></g></g><g fill="#ff9800" fill-opacity="1"><g transform="translate(281.867922, 275.761487)"><g/></g></g><g fill="#ff9800" fill-opacity="1"><g transform="translate(290.153195, 265.31101)"><g><path d="M 4.796875 -9.671875 C 4.804688 -9.085938 4.734375 -8.5 4.578125 -7.90625 C 4.421875 -7.320312 4.175781 -6.75 3.84375 -6.1875 C 3.320312 -5.332031 2.675781 -4.65625 1.90625 -4.15625 C 1.144531 -3.664062 0.34375 -3.332031 -0.5 -3.15625 C -1.351562 -2.988281 -2.222656 -2.984375 -3.109375 -3.140625 C -3.992188 -3.304688 -4.8125 -3.613281 -5.5625 -4.0625 C -6.34375 -4.53125 -7.003906 -5.128906 -7.546875 -5.859375 C -8.085938 -6.585938 -8.476562 -7.367188 -8.71875 -8.203125 C -8.957031 -9.046875 -9.023438 -9.921875 -8.921875 -10.828125 C -8.828125 -11.734375 -8.53125 -12.597656 -8.03125 -13.421875 C -7.519531 -14.273438 -6.878906 -14.945312 -6.109375 -15.4375 C -5.347656 -15.925781 -4.53125 -16.25 -3.65625 -16.40625 C -2.789062 -16.570312 -1.914062 -16.578125 -1.03125 -16.421875 C -0.15625 -16.265625 0.648438 -15.960938 1.390625 -15.515625 C 2.160156 -15.046875 2.8125 -14.46875 3.34375 -13.78125 C 3.875 -13.09375 4.257812 -12.347656 4.5 -11.546875 L 7.28125 -12.046875 L 5.984375 -9.890625 Z M 1.84375 -7.4375 C 2.019531 -7.726562 2.148438 -8.019531 2.234375 -8.3125 C 2.316406 -8.613281 2.367188 -8.914062 2.390625 -9.21875 L -0.703125 -8.640625 L 0.59375 -10.796875 L 1.984375 -11.0625 C 1.765625 -11.5 1.476562 -11.90625 1.125 -12.28125 C 0.78125 -12.65625 0.394531 -12.972656 -0.03125 -13.234375 C -0.539062 -13.535156 -1.078125 -13.75 -1.640625 -13.875 C -2.203125 -14 -2.753906 -14.023438 -3.296875 -13.953125 C -3.835938 -13.878906 -4.347656 -13.695312 -4.828125 -13.40625 C -5.316406 -13.113281 -5.71875 -12.707031 -6.03125 -12.1875 C -6.363281 -11.632812 -6.546875 -11.070312 -6.578125 -10.5 C -6.617188 -9.9375 -6.535156 -9.398438 -6.328125 -8.890625 C -6.128906 -8.378906 -5.835938 -7.90625 -5.453125 -7.46875 C -5.078125 -7.03125 -4.644531 -6.664062 -4.15625 -6.375 C -3.644531 -6.0625 -3.109375 -5.84375 -2.546875 -5.71875 C -1.984375 -5.59375 -1.429688 -5.5625 -0.890625 -5.625 C -0.347656 -5.695312 0.15625 -5.878906 0.625 -6.171875 C 1.101562 -6.460938 1.507812 -6.882812 1.84375 -7.4375 Z M 1.84375 -7.4375 "/></g></g></g><g fill="#ff9800" fill-opacity="1"><g transform="translate(301.588839, 244.725639)"><g><path d="M 0.375 -7.5625 C 0.59375 -8.15625 0.65625 -8.695312 0.5625 -9.1875 C 0.476562 -9.675781 0.289062 -10.117188 0 -10.515625 C -0.289062 -10.910156 -0.671875 -11.25 -1.140625 -11.53125 C -1.609375 -11.820312 -2.101562 -12.066406 -2.625 -12.265625 L -9.203125 -14.6875 L -8.296875 -17.171875 L -1.71875 -14.75 C -0.84375 -14.425781 -0.0546875 -14.015625 0.640625 -13.515625 C 1.335938 -13.015625 1.890625 -12.429688 2.296875 -11.765625 C 2.710938 -11.097656 2.957031 -10.34375 3.03125 -9.5 C 3.113281 -8.664062 2.972656 -7.753906 2.609375 -6.765625 C 2.222656 -5.742188 1.71875 -4.9375 1.09375 -4.34375 C 0.46875 -3.757812 -0.210938 -3.351562 -0.953125 -3.125 C -1.703125 -2.894531 -2.503906 -2.820312 -3.359375 -2.90625 C -4.210938 -2.988281 -5.050781 -3.179688 -5.875 -3.484375 L -12.453125 -5.90625 L -11.515625 -8.421875 L -4.9375 -6 C -4.40625 -5.800781 -3.867188 -5.65625 -3.328125 -5.5625 C -2.785156 -5.476562 -2.273438 -5.488281 -1.796875 -5.59375 C -1.316406 -5.707031 -0.882812 -5.914062 -0.5 -6.21875 C -0.125 -6.53125 0.164062 -6.976562 0.375 -7.5625 Z M 0.375 -7.5625 "/></g></g></g><g fill="#ff9800" fill-opacity="1"><g transform="translate(308.678451, 222.655461)"><g><path d="M 0.296875 -1.40625 L -13.140625 -4.171875 L -12.609375 -6.78125 L 0.828125 -4.015625 Z M 0.296875 -1.40625 "/></g></g></g><g fill="#ff9800" fill-opacity="1"><g transform="translate(311.244403, 208.63478)"><g><path d="M -8.578125 -4.546875 L 0.203125 -4.09375 L 0.078125 -1.4375 L -13.625 -2.140625 L -13.53125 -4.203125 L -4.171875 -10.875 L -13.140625 -11.34375 L -13.015625 -14 L 0.671875 -13.296875 L 0.5625 -11.140625 Z M -8.578125 -4.546875 "/></g></g></g><g fill="#ff9800" fill-opacity="1"><g transform="translate(311.590562, 184.92218)"><g><path d="M -9.28125 -2.8125 L -0.578125 -4.046875 L -0.203125 -1.421875 L -13.78125 0.5 L -14.0625 -1.546875 L -6.15625 -9.890625 L -15.046875 -8.625 L -15.421875 -11.265625 L -1.859375 -13.1875 L -1.5625 -11.046875 Z M -9.28125 -2.8125 "/></g></g></g><g fill="#ff9800" fill-opacity="1"><g transform="translate(97.910161, 223.082618)"><g><path d="M 62 -18.046875 C 62.289062 -19.066406 62.863281 -19.820312 63.71875 -20.3125 C 64.570312 -20.800781 65.484375 -21.046875 66.453125 -21.046875 C 67.191406 -21.046875 67.945312 -20.859375 68.71875 -20.484375 C 69.488281 -20.109375 69.757812 -19.492188 69.53125 -18.640625 C 68.613281 -15.160156 67.054688 -12.140625 64.859375 -9.578125 C 62.671875 -7.015625 60.066406 -4.90625 57.046875 -3.25 C 54.023438 -1.59375 50.832031 -0.351562 47.46875 0.46875 C 44.101562 1.289062 40.738281 1.703125 37.375 1.703125 C 31.675781 1.703125 26.859375 0.460938 22.921875 -2.015625 C 18.984375 -4.492188 15.929688 -7.898438 13.765625 -12.234375 C 11.597656 -16.566406 10.257812 -21.46875 9.75 -26.9375 C 9.582031 -29.050781 9.484375 -31.742188 9.453125 -35.015625 C 9.421875 -38.296875 9.472656 -41.890625 9.609375 -45.796875 C 9.753906 -49.703125 9.957031 -53.734375 10.21875 -57.890625 C 10.476562 -62.054688 10.765625 -66.109375 11.078125 -70.046875 C 11.390625 -73.984375 11.71875 -77.578125 12.0625 -80.828125 C 12.40625 -84.078125 12.71875 -86.726562 13 -88.78125 C 13.113281 -89.75 13.613281 -90.457031 14.5 -90.90625 C 15.382812 -91.363281 16.253906 -91.679688 17.109375 -91.859375 C 20.921875 -92.484375 24.738281 -92.910156 28.5625 -93.140625 C 32.382812 -93.367188 36.234375 -93.484375 40.109375 -93.484375 C 44.390625 -93.484375 48.664062 -93.394531 52.9375 -93.21875 C 57.21875 -93.050781 61.46875 -92.625 65.6875 -91.9375 C 66.476562 -91.820312 67.144531 -91.476562 67.6875 -90.90625 C 68.226562 -90.34375 68.300781 -89.632812 67.90625 -88.78125 C 67.445312 -87.8125 66.773438 -87.195312 65.890625 -86.9375 C 65.015625 -86.675781 64.09375 -86.546875 63.125 -86.546875 C 59.351562 -87.117188 55.53125 -87.546875 51.65625 -87.828125 C 47.78125 -88.117188 43.90625 -88.265625 40.03125 -88.265625 C 36.71875 -88.265625 33.378906 -88.148438 30.015625 -87.921875 C 26.648438 -87.691406 23.34375 -87.347656 20.09375 -86.890625 C 19.351562 -81.191406 18.796875 -75.460938 18.421875 -69.703125 C 18.054688 -63.941406 17.644531 -58.007812 17.1875 -51.90625 C 19.863281 -51 22.6875 -50.316406 25.65625 -49.859375 C 28.625 -49.398438 31.644531 -49.171875 34.71875 -49.171875 C 41.84375 -49.171875 48.882812 -50.226562 55.84375 -52.34375 C 56.414062 -52.457031 56.988281 -52.515625 57.5625 -52.515625 C 58.1875 -52.515625 58.753906 -52.425781 59.265625 -52.25 C 59.773438 -52.082031 60.085938 -51.710938 60.203125 -51.140625 C 60.378906 -50.398438 60.050781 -49.742188 59.21875 -49.171875 C 58.394531 -48.609375 57.671875 -48.269531 57.046875 -48.15625 C 53.222656 -47.070312 49.242188 -46.203125 45.109375 -45.546875 C 40.984375 -44.890625 36.804688 -44.5625 32.578125 -44.5625 C 29.960938 -44.5625 27.34375 -44.703125 24.71875 -44.984375 C 22.09375 -45.265625 19.523438 -45.691406 17.015625 -46.265625 C 16.898438 -43.359375 16.84375 -40.460938 16.84375 -37.578125 C 16.84375 -34.703125 16.957031 -31.84375 17.1875 -29 C 17.476562 -26.144531 18.0625 -23.265625 18.9375 -20.359375 C 19.820312 -17.453125 21.078125 -14.769531 22.703125 -12.3125 C 24.328125 -9.863281 26.378906 -7.867188 28.859375 -6.328125 C 31.335938 -4.785156 34.316406 -3.957031 37.796875 -3.84375 C 40.191406 -3.84375 42.65625 -4.082031 45.1875 -4.5625 C 47.726562 -5.050781 50.140625 -5.835938 52.421875 -6.921875 C 54.703125 -8.003906 56.679688 -9.457031 58.359375 -11.28125 C 60.046875 -13.113281 61.257812 -15.367188 62 -18.046875 Z M 62 -18.046875 "/></g></g></g><g fill="#ff9800" fill-opacity="1"><g transform="translate(162.749228, 223.082618)"><g><path d="M 98.703125 2.046875 C 99.035156 1.421875 99.660156 0.921875 100.578125 0.546875 C 101.492188 0.179688 102.40625 0 103.3125 0 C 104 0 104.625 0.125 105.1875 0.375 C 105.757812 0.632812 106.046875 1.078125 106.046875 1.703125 C 106.046875 1.929688 105.929688 2.25 105.703125 2.65625 C 104.222656 5.90625 102.113281 8.566406 99.375 10.640625 C 96.644531 12.722656 93.582031 14.265625 90.1875 15.265625 C 86.789062 16.265625 83.328125 16.765625 79.796875 16.765625 C 73.578125 16.765625 67.914062 15.28125 62.8125 12.3125 C 57.707031 9.351562 53.476562 5.535156 50.125 0.859375 C 49.4375 0.910156 48.734375 0.953125 48.015625 0.984375 C 47.304688 1.015625 46.550781 1.03125 45.75 1.03125 C 45.300781 1.03125 44.804688 1.03125 44.265625 1.03125 C 43.722656 1.03125 43.164062 1.03125 42.59375 1.03125 C 37.519531 1.03125 33.070312 0.078125 29.25 -1.828125 C 25.425781 -3.742188 22.1875 -6.328125 19.53125 -9.578125 C 16.882812 -12.828125 14.75 -16.472656 13.125 -20.515625 C 11.5 -24.566406 10.316406 -28.773438 9.578125 -33.140625 C 8.835938 -37.503906 8.46875 -41.707031 8.46875 -45.75 C 8.46875 -51.914062 9.289062 -57.847656 10.9375 -63.546875 C 12.59375 -69.242188 15.0625 -74.332031 18.34375 -78.8125 C 21.625 -83.289062 25.703125 -86.835938 30.578125 -89.453125 C 35.453125 -92.078125 41.082031 -93.390625 47.46875 -93.390625 C 52.707031 -93.335938 57.28125 -92.34375 61.1875 -90.40625 C 65.09375 -88.46875 68.398438 -85.84375 71.109375 -82.53125 C 73.816406 -79.226562 76 -75.519531 77.65625 -71.40625 C 79.3125 -67.300781 80.507812 -63.039062 81.25 -58.625 C 81.988281 -54.207031 82.359375 -49.914062 82.359375 -45.75 C 82.359375 -41.300781 81.914062 -36.835938 81.03125 -32.359375 C 80.144531 -27.890625 78.75 -23.613281 76.84375 -19.53125 C 74.9375 -15.457031 72.441406 -11.796875 69.359375 -8.546875 C 66.285156 -5.296875 62.550781 -2.734375 58.15625 -0.859375 C 61.007812 2.910156 64.457031 5.960938 68.5 8.296875 C 72.550781 10.628906 77 11.796875 81.84375 11.796875 C 85.320312 11.796875 88.597656 11.039062 91.671875 9.53125 C 94.753906 8.019531 97.097656 5.523438 98.703125 2.046875 Z M 55.15625 -5.46875 C 56.875 -6.207031 58.65625 -7.257812 60.5 -8.625 C 62.351562 -10 64.09375 -11.613281 65.71875 -13.46875 C 67.34375 -15.320312 68.65625 -17.273438 69.65625 -19.328125 C 70.65625 -21.378906 71.15625 -23.460938 71.15625 -25.578125 C 71.15625 -27.515625 70.539062 -29.378906 69.3125 -31.171875 C 68.09375 -32.972656 66.582031 -34.457031 64.78125 -35.625 C 62.988281 -36.789062 61.207031 -37.375 59.4375 -37.375 C 57.21875 -37.375 55.4375 -36.734375 54.09375 -35.453125 C 52.75 -34.171875 51.765625 -32.53125 51.140625 -30.53125 C 50.515625 -28.539062 50.203125 -26.488281 50.203125 -24.375 C 50.203125 -21.289062 50.628906 -18.039062 51.484375 -14.625 C 52.335938 -11.207031 53.5625 -8.15625 55.15625 -5.46875 Z M 43.796875 -3.421875 L 47.71875 -3.421875 C 46.863281 -4.960938 46.050781 -6.800781 45.28125 -8.9375 C 44.507812 -11.070312 43.867188 -13.335938 43.359375 -15.734375 C 42.847656 -18.128906 42.59375 -20.46875 42.59375 -22.75 C 42.59375 -26.457031 43.304688 -29.789062 44.734375 -32.75 C 46.160156 -35.71875 48.179688 -38.054688 50.796875 -39.765625 C 53.421875 -41.472656 56.554688 -42.328125 60.203125 -42.328125 C 61.398438 -42.328125 62.753906 -42.128906 64.265625 -41.734375 C 65.773438 -41.335938 67.226562 -40.679688 68.625 -39.765625 C 70.03125 -38.859375 71.203125 -37.632812 72.140625 -36.09375 C 73.078125 -34.550781 73.601562 -32.671875 73.71875 -30.453125 C 73.832031 -31.128906 73.929688 -32.125 74.015625 -33.4375 C 74.109375 -34.75 74.210938 -36.1875 74.328125 -37.75 C 74.441406 -39.320312 74.523438 -40.765625 74.578125 -42.078125 C 74.628906 -43.390625 74.65625 -44.390625 74.65625 -45.078125 C 74.65625 -49.117188 74.328125 -53.191406 73.671875 -57.296875 C 73.023438 -61.398438 71.988281 -65.289062 70.5625 -68.96875 C 69.132812 -72.65625 67.222656 -75.953125 64.828125 -78.859375 C 62.429688 -81.765625 59.492188 -84.039062 56.015625 -85.6875 C 52.535156 -87.34375 48.429688 -88.171875 43.703125 -88.171875 C 42.109375 -88.171875 40.566406 -88.054688 39.078125 -87.828125 C 37.597656 -87.609375 36.289062 -87.269531 35.15625 -86.8125 C 31.382812 -85.15625 28.257812 -82.816406 25.78125 -79.796875 C 23.300781 -76.773438 21.347656 -73.367188 19.921875 -69.578125 C 18.503906 -65.785156 17.492188 -61.890625 16.890625 -57.890625 C 16.296875 -53.898438 16 -50.113281 16 -46.53125 C 16 -43.050781 16.3125 -39.382812 16.9375 -35.53125 C 17.5625 -31.6875 18.554688 -27.894531 19.921875 -24.15625 C 21.296875 -20.425781 23.078125 -17.035156 25.265625 -13.984375 C 27.460938 -10.929688 30.085938 -8.445312 33.140625 -6.53125 C 36.191406 -4.625 39.742188 -3.585938 43.796875 -3.421875 Z M 43.796875 -3.421875 "/></g></g></g></svg>